<svg width="128" height="128" viewBox="0 0 128 128" fill="none" xmlns="http://www.w3.org/2000/svg">
<path d="M126.671 98.44C122.111 99.6 119.291 98.49 116.761 94.69C111.081 86.18 104.811 78.06 98.7608 69.79C97.9808 68.72 97.1708 67.67 96.1608 66.34C89.0008 76 81.8508 85.2 75.1408 94.77C72.7408 98.19 70.2208 99.68 65.7408 98.47L92.6608 62.34L67.6008 29.71C71.9108 28.87 74.8908 29.3 77.5308 33.16C83.3608 41.68 89.7908 49.79 96.2008 58.37C102.651 49.82 109.001 41.7 115.001 33.26C117.411 29.84 120.001 28.54 124.331 29.8C121.051 34.15 117.841 38.43 114.611 42.68C110.251 48.41 105.971 54.21 101.451 59.82C99.8408 61.82 100.101 63.12 101.541 65.01C109.901 76 118.161 87.1 126.671 98.44ZM1.33078 61.74C2.05078 58.13 2.53078 54.45 3.53078 50.91C9.53078 29.48 34.1308 20.57 51.0308 33.85C60.9308 41.64 63.3908 52.62 62.9008 65H7.10078C6.26078 87.21 22.2508 100.62 42.6308 93.78C49.7808 91.38 53.9908 85.78 56.1008 78.78C57.1708 75.27 58.9408 74.72 62.2408 75.72C60.5508 84.48 56.7208 91.8 48.7208 96.38C36.7208 103.24 19.5908 101.02 10.5808 91.49C5.26078 85.89 3.00078 78.92 2.00078 71.39C1.85078 70.19 1.54078 69.01 1.30078 67.82C1.32078 65.7934 1.33078 63.7667 1.33078 61.74V61.74ZM7.20078 60.25H57.6308C57.3008 44.19 47.3008 32.78 33.6308 32.68C18.6308 32.56 7.85078 43.7 7.20078 60.25V60.25Z" fill="#2CA7E0"/>
</svg>
