<svg width="250" height="250" viewBox="0 0 250 250" fill="none" xmlns="http://www.w3.org/2000/svg">
<path d="M156.25 125C156.25 131.181 154.417 137.223 150.983 142.362C147.55 147.501 142.669 151.506 136.959 153.871C131.249 156.236 124.965 156.855 118.903 155.65C112.842 154.444 107.273 151.467 102.903 147.097C98.5325 142.727 95.5562 137.158 94.3505 131.097C93.1447 125.035 93.7635 118.751 96.1288 113.041C98.494 107.331 102.499 102.45 107.638 99.0166C112.777 95.5828 118.819 93.75 125 93.75C133.28 93.7758 141.214 97.0764 147.069 102.931C152.924 108.786 156.224 116.72 156.25 125V125ZM222.656 82.0312V167.969C222.656 182.473 216.895 196.383 206.639 206.639C196.383 216.895 182.473 222.656 167.969 222.656H82.0312C67.5272 222.656 53.6172 216.895 43.3613 206.639C33.1055 196.383 27.3438 182.473 27.3438 167.969V82.0312C27.3438 67.5272 33.1055 53.6172 43.3613 43.3613C53.6172 33.1055 67.5272 27.3438 82.0312 27.3438H167.969C182.473 27.3438 196.383 33.1055 206.639 43.3613C216.895 53.6172 222.656 67.5272 222.656 82.0312V82.0312ZM171.875 125C171.875 115.729 169.126 106.666 163.975 98.9576C158.824 91.2491 151.504 85.241 142.938 81.6932C134.373 78.1453 124.948 77.217 115.855 79.0257C106.762 80.8344 98.41 85.2988 91.8544 91.8544C85.2988 98.41 80.8344 106.762 79.0257 115.855C77.217 124.948 78.1453 134.373 81.6932 142.938C85.241 151.504 91.2491 158.824 98.9576 163.975C106.666 169.126 115.729 171.875 125 171.875C137.432 171.875 149.355 166.936 158.146 158.146C166.936 149.355 171.875 137.432 171.875 125ZM187.5 74.2188C187.5 71.901 186.813 69.6353 185.525 67.7082C184.237 65.781 182.407 64.279 180.266 63.392C178.124 62.5051 175.768 62.273 173.495 62.7252C171.222 63.1773 169.134 64.2934 167.495 65.9323C165.856 67.5712 164.74 69.6593 164.288 71.9325C163.836 74.2057 164.068 76.562 164.955 78.7033C165.842 80.8446 167.344 82.6749 169.271 83.9625C171.198 85.2502 173.464 85.9375 175.781 85.9375C178.889 85.9375 181.87 84.7029 184.068 82.5052C186.265 80.3075 187.5 77.3268 187.5 74.2188Z" fill="#2CA7E0"/>
</svg>
