<svg width="250" height="250" viewBox="0 0 250 250" fill="none" xmlns="http://www.w3.org/2000/svg">
<g clip-path="url(#clip0_1325_9)">
<path fill-rule="evenodd" clip-rule="evenodd" d="M187.5 31.25C195.788 31.25 203.737 34.5424 209.597 40.4029C215.458 46.2634 218.75 54.212 218.75 62.5V187.5C218.75 195.788 215.458 203.737 209.597 209.597C203.737 215.458 195.788 218.75 187.5 218.75H62.5C54.212 218.75 46.2634 215.458 40.4029 209.597C34.5424 203.737 31.25 195.788 31.25 187.5V62.5C31.25 54.212 34.5424 46.2634 40.4029 40.4029C46.2634 34.5424 54.212 31.25 62.5 31.25H187.5ZM83.3333 104.167C80.5707 104.167 77.9211 105.264 75.9676 107.218C74.0141 109.171 72.9167 111.821 72.9167 114.583V166.667C72.9167 169.429 74.0141 172.079 75.9676 174.032C77.9211 175.986 80.5707 177.083 83.3333 177.083C86.096 177.083 88.7455 175.986 90.699 174.032C92.6525 172.079 93.75 169.429 93.75 166.667V114.583C93.75 111.821 92.6525 109.171 90.699 107.218C88.7455 105.264 86.096 104.167 83.3333 104.167V104.167ZM114.583 93.75C111.821 93.75 109.171 94.8475 107.218 96.801C105.264 98.7545 104.167 101.404 104.167 104.167V166.667C104.167 169.429 105.264 172.079 107.218 174.032C109.171 175.986 111.821 177.083 114.583 177.083C117.346 177.083 119.996 175.986 121.949 174.032C123.903 172.079 125 169.429 125 166.667V128.542C129.064 124.121 134.006 120.598 139.51 118.198C142.979 116.719 148.198 116.115 151.823 117.26C153.025 117.566 154.097 118.253 154.875 119.219C155.417 119.948 156.25 121.573 156.25 125V166.667C156.25 169.429 157.347 172.079 159.301 174.032C161.254 175.986 163.904 177.083 166.667 177.083C169.429 177.083 172.079 175.986 174.032 174.032C175.986 172.079 177.083 169.429 177.083 166.667V125C177.083 118.021 175.313 111.812 171.625 106.833C168.232 102.318 163.483 99.0076 158.073 97.3854C148.677 94.4375 138.271 96.0729 131.323 99.0521C129.097 100.005 126.93 101.09 124.833 102.302C124.397 99.902 123.131 97.7312 121.258 96.1684C119.385 94.6055 117.023 93.7496 114.583 93.75V93.75ZM83.3333 72.9167C80.5707 72.9167 77.9211 74.0141 75.9676 75.9676C74.0141 77.9211 72.9167 80.5707 72.9167 83.3333C72.9167 86.096 74.0141 88.7455 75.9676 90.699C77.9211 92.6525 80.5707 93.75 83.3333 93.75C86.096 93.75 88.7455 92.6525 90.699 90.699C92.6525 88.7455 93.75 86.096 93.75 83.3333C93.75 80.5707 92.6525 77.9211 90.699 75.9676C88.7455 74.0141 86.096 72.9167 83.3333 72.9167V72.9167Z" fill="#2CA7E0"/>
</g>
<defs>
<clipPath id="clip0_1325_9">
<rect width="250" height="250" fill="white"/>
</clipPath>
</defs>
</svg>
