<svg width="250" height="250" viewBox="0 0 250 250" fill="none" xmlns="http://www.w3.org/2000/svg">
<path d="M233.958 62.5C225.937 66.1458 217.291 68.5416 208.333 69.6875C217.499 64.1666 224.583 55.4166 227.916 44.8958C219.27 50.1041 209.687 53.75 199.583 55.8333C191.354 46.875 179.791 41.6666 166.666 41.6666C142.187 41.6666 122.187 61.6666 122.187 86.3541C122.187 89.8958 122.604 93.3333 123.333 96.5625C86.2494 94.6875 53.2285 76.875 31.2493 49.8958C27.3952 56.4583 25.2077 64.1666 25.2077 72.2916C25.2077 87.8125 33.0202 101.562 45.1035 109.375C37.7077 109.375 30.8327 107.292 24.791 104.167V104.479C24.791 126.146 40.2077 144.271 60.6244 148.333C54.0694 150.127 47.1878 150.377 40.5202 149.062C43.3494 157.942 48.8904 165.713 56.3641 171.28C63.8379 176.848 72.8686 179.934 82.1868 180.104C66.3913 192.609 46.8118 199.368 26.666 199.271C23.1243 199.271 19.5827 199.062 16.041 198.646C35.8327 211.354 59.3743 218.75 84.5827 218.75C166.666 218.75 211.77 150.625 211.77 91.5625C211.77 89.5833 211.77 87.7083 211.666 85.7291C220.416 79.4791 227.916 71.5625 233.958 62.5V62.5Z" fill="#2CA7E0"/>
</svg>
